<svg width="100" height="100" viewBox="0 0 100 100" fill="none" xmlns="http://www.w3.org/2000/svg">
<g clip-path="url(#clip0_6197_4567)">
<mask id="mask0_6197_4567" style="mask-type:luminance" maskUnits="userSpaceOnUse" x="0" y="0" width="100" height="100">
<path d="M0 0H100V100H0V0Z" fill="white"/>
</mask>
<g mask="url(#mask0_6197_4567)">
<path fill-rule="evenodd" clip-rule="evenodd" d="M54.4922 22.7426C54.4922 10.214 64.6486 0 77.1771 0C89.7057 0 99.8621 10.214 99.8621 22.7426C99.8621 35.2711 89.7057 45.485 77.1771 45.485C64.6486 45.485 54.4922 35.2711 54.4922 22.7426Z" fill="#1A1A1A"/>
<path fill-rule="evenodd" clip-rule="evenodd" d="M9.86328 0.0444412C4.46988 0.0444412 0.0976562 4.41666 0.0976562 9.81008V35.7637C0.0976562 41.1572 4.46988 45.5293 9.86328 45.5293H35.702C41.0953 45.5293 45.4676 41.1572 45.4676 35.7637V9.81008C45.4676 4.41666 41.0953 0.0444412 35.702 0.0444412H9.86328Z" fill="#1A1A1A"/>
<path fill-rule="evenodd" clip-rule="evenodd" d="M1.31137 80.3785C-0.437121 78.6289 -0.437125 75.7924 1.31137 74.043L19.5395 55.8043C21.2879 54.0549 24.1229 54.0549 25.8713 55.8043L44.0994 74.043C45.8479 75.7924 45.8479 78.6289 44.0994 80.3785L25.8713 98.6172C24.1229 100.367 21.2879 100.367 19.5395 98.6172L1.31137 80.3785Z" fill="#1A1A1A"/>
<path d="M80.1986 57.4936C80.1986 55.8359 78.8549 54.4922 77.1973 54.4922C75.5398 54.4922 74.1961 55.8359 74.1961 57.4936V74.2072H57.4936C55.8359 74.2072 54.4922 75.551 54.4922 77.2086C54.4922 78.8662 55.8359 80.21 57.4936 80.21H74.1961V96.9238C74.1961 98.5814 75.5398 99.9252 77.1973 99.9252C78.8549 99.9252 80.1986 98.5814 80.1986 96.9238V80.21H96.901C98.5586 80.21 99.9023 78.8662 99.9023 77.2086C99.9023 75.551 98.5586 74.2072 96.901 74.2072H80.1986V57.4936Z" fill="#1A1A1A"/>
</g>
</g>
<defs>
<clipPath id="clip0_6197_4567">
<rect width="100" height="100" fill="white"/>
</clipPath>
</defs>
</svg>
