<svg width="100" height="100" viewBox="0 0 100 100" fill="none" xmlns="http://www.w3.org/2000/svg">
<path d="M90.625 50C90.625 53.4688 86.375 56.25 85.5 59.5312C84.625 62.8125 86.875 67.4375 85.1875 70.3125C83.5 73.1875 78.375 73.5937 76 76C73.625 78.4062 73.25 83.5 70.3125 85.1875C67.375 86.875 62.8125 84.625 59.5312 85.5C56.25 86.375 53.4688 90.625 50 90.625C46.5312 90.625 43.75 86.375 40.625 85.5C37.5 84.625 32.7188 86.875 29.8438 85.1875C26.9688 83.5 26.5625 78.375 24.1563 76C21.75 73.625 16.6562 73.25 14.9687 70.3125C13.2812 67.375 15.5313 62.8125 14.6563 59.5312C13.7813 56.25 9.375 53.4688 9.375 50C9.375 46.5312 13.625 43.75 14.5 40.625C15.375 37.5 13.125 32.7188 14.8125 29.8438C16.5 26.9688 21.625 26.4062 24 24C26.375 21.5937 26.75 16.5 29.6875 14.8125C32.625 13.125 37.1875 15.375 40.4687 14.5C43.75 13.625 46.5312 9.375 50 9.375C53.4688 9.375 56.25 13.625 59.5312 14.5C62.8125 15.375 67.4375 13.125 70.3125 14.8125C73.1875 16.5 73.5937 21.625 76 24C78.4062 26.375 83.5 26.75 85.1875 29.6875C86.875 32.625 84.625 37.1875 85.5 40.4687C86.375 43.75 90.625 46.5312 90.625 50Z" fill="#109138"/>
<path d="M50 76.5625C64.6701 76.5625 76.5625 64.6701 76.5625 50C76.5625 35.3299 64.6701 23.4375 50 23.4375C35.3299 23.4375 23.4375 35.3299 23.4375 50C23.4375 64.6701 35.3299 76.5625 50 76.5625Z" fill="#20BF55"/>
<path d="M47.2813 57.4063C46.9733 57.4077 46.6682 57.3476 46.3838 57.2296C46.0994 57.1115 45.8414 56.9378 45.625 56.7187L38.3438 49.5625C37.9048 49.123 37.6583 48.5273 37.6583 47.9062C37.6583 47.2852 37.9048 46.6895 38.3438 46.25C38.7832 45.8111 39.3789 45.5646 40 45.5646C40.6211 45.5646 41.2168 45.8111 41.6563 46.25L47.2813 51.8125L58.3438 40.9062C58.7872 40.467 59.3869 40.2219 60.011 40.2248C60.6352 40.2277 61.2326 40.4785 61.6719 40.9219C62.1111 41.3653 62.3563 41.965 62.3533 42.5892C62.3504 43.2133 62.0997 43.8107 61.6562 44.25L48.9062 56.75C48.6953 56.9655 48.442 57.135 48.1623 57.248C47.8827 57.3609 47.5827 57.4148 47.2813 57.4063Z" fill="#EDEBEA"/>
</svg>
